<svg xmlns="http://www.w3.org/2000/svg" xml:space="preserve" id="Capa_1" width="32" fill="#e0ce0b" stroke="#e0ce0b" viewBox="0 0 35 35"><path id="SVGRepo_iconCarrier" d="M16.01 18.002c.279-.008.49-.019.633-.023v4.146a16 16 0 0 1-1.607-.142q-.623-.095-.941-.399-.496-.498-.495-1.408-.001-1.514.644-1.828.252-.133.526-.202.275-.07.551-.101.267-.027.689-.043zm-4.431-7.91h11.845a1.288 1.288 0 0 0 0-2.576H11.579a1.288 1.288 0 0 0 0 2.576zm.357-3.223H23.07c.365-.409.611-1.093.684-1.665.158-1.277 1.146-4.566 0-5.148-1.037-.525-2.591 2.839-3.75 2.75-.881-.067-1.616-2.5-2.5-2.5-.928 0-1.698 2.572-2.625 2.625-1.153.066-2.584-3.378-3.625-2.875-1.159.56-.159 3.871 0 5.148.068.57.314 1.254.682 1.665zm8.296 17.881q-.612-.135-1.931-.16v4.34q1.782 0 2.425-.37.297-.23.512-.563.213-.335.214-1.181-.002-1.008-.302-1.472c-.203-.305-.505-.504-.918-.594zm10.159 9.692c-.664.71-1.795.731-2.522.052-.066-.062-.122-.131-.179-.199H7.301c-.031.039-.057.082-.092.119-.681.73-1.808.785-2.517.121-.71-.664-.731-1.795-.052-2.525.154-.166.334-.291.524-.387V16.432c0-1.1.765-2.475 1.697-3.056l4.275-2.659c.125.013.25.027.379.027h11.961c.131 0 .254-.015.379-.027l4.276 2.659c.935.581 1.698 1.956 1.698 3.056v15.203c.153.076.304.17.438.293.733.678.788 1.804.124 2.514zm-6.099-7.714q0-2.431-1.015-3.442-.708-.627-1.84-.848-1.13-.219-3.136-.312V17.98q.181.019.734.027c.365.004.668.025.898.062q.348.054.662.24.305.187.432.597c.09.271.133.684.133 1.229h2.592q0-1.507-.315-2.4-.318-.895-.965-1.347-.649-.452-1.601-.617c-.637-.11-1.49-.182-2.57-.215v-1.488h-1.659v1.488q-1.864 0-3.072.238-1.21.238-1.965 1.154-.81.998-.81 3.233c0 1.146.189 2.008.576 2.592q.37.552.909.878c.36.217.765.383 1.204.493q.664.164 1.527.267l1.627.184v4.339q-.832 0-1.701-.08-.593-.068-.928-.276-.338-.211-.545-.703-.167-.41-.168-1.699h-2.592q0 1.605.221 2.506.221.902 1.006 1.574.763.65 1.928.875c.777.15 1.703.229 2.779.229v1.614h1.66V31.36q2.693 0 4.166-.729c1.182-.582 1.788-1.881 1.828-3.903z"/></svg>